<svg xmlns="http://www.w3.org/2000/svg" viewBox="0 0 400 520" fill="none">
  <rect width="400" height="520" fill="#F5EBDD"/>
  <ellipse cx="200" cy="490" rx="120" ry="12" fill="#2D2A26" opacity="0.06"/>
  <rect x="60" y="40" width="280" height="420" rx="4" fill="#1F3D2E"/>
  <rect x="68" y="48" width="264" height="404" rx="2" fill="#F5EBDD"/>
  <rect x="76" y="56" width="248" height="388" rx="1" stroke="#B8893A" stroke-width="2" fill="none"/>
  <path d="M92 72 L112 72 L112 92 M288 72 L308 72 L308 92 M92 408 L112 408 L112 428 M288 408 L308 408 L308 428" stroke="#B8893A" stroke-width="1.2" fill="none" opacity="0.5"/>
  <text x="200" y="160" text-anchor="middle" fill="#1F3D2E" font-family="Georgia, serif" font-size="20" font-weight="600">Kit Guia Prßtico</text>
  <text x="200" y="188" text-anchor="middle" fill="#1F3D2E" font-family="Georgia, serif" font-size="16">de Eb¾s e Banhos</text>
  <line x1="130" y1="210" x2="270" y2="210" stroke="#B8893A" stroke-width="1" opacity="0.4"/>
  <path d="M200 240C200 240 170 265 170 300C170 325 185 345 200 352C215 345 230 325 230 300C230 265 200 240 200 240Z" fill="#1F3D2E" opacity="0.12"/>
  <text x="200" y="400" text-anchor="middle" fill="#B8893A" font-family="Georgia, serif" font-size="13" font-style="italic">NossoAxķ</text>
  <rect x="110" y="280" width="180" height="2" rx="1" fill="#1F3D2E" opacity="0.08"/>
  <rect x="110" y="300" width="150" height="2" rx="1" fill="#1F3D2E" opacity="0.06"/>
  <rect x="110" y="320" width="165" height="2" rx="1" fill="#1F3D2E" opacity="0.06"/>
</svg>
