<svg xmlns="http://www.w3.org/2000/svg" viewBox="0 0 360 480" fill="none">
  <rect width="360" height="480" fill="#F5EBDD"/>
  <rect x="30" y="30" width="300" height="420" rx="2" stroke="#B8893A" stroke-width="1.5" fill="none" opacity="0.4"/>
  <text x="180" y="80" text-anchor="middle" fill="#1F3D2E" font-family="Georgia, serif" font-size="18" font-weight="600">Ervas Sagradas</text>
  <line x1="110" y1="95" x2="250" y2="95" stroke="#B8893A" stroke-width="0.8" opacity="0.5"/>
  <rect x="50" y="115" width="130" height="60" rx="4" stroke="#1F3D2E" stroke-width="0.8" fill="none" opacity="0.15"/>
  <text x="115" y="140" text-anchor="middle" fill="#1F3D2E" font-family="Georgia, serif" font-size="10" font-weight="600">Alecrim</text>
  <text x="115" y="158" text-anchor="middle" fill="#5C5650" font-family="Georgia, serif" font-size="8">ProteÁ„o</text>
  <rect x="190" y="115" width="130" height="60" rx="4" stroke="#1F3D2E" stroke-width="0.8" fill="none" opacity="0.15"/>
  <text x="255" y="140" text-anchor="middle" fill="#1F3D2E" font-family="Georgia, serif" font-size="10" font-weight="600">Manjeric„o</text>
  <text x="255" y="158" text-anchor="middle" fill="#5C5650" font-family="Georgia, serif" font-size="8">Prosperidade</text>
  <rect x="50" y="190" width="130" height="60" rx="4" stroke="#1F3D2E" stroke-width="0.8" fill="none" opacity="0.15"/>
  <text x="115" y="215" text-anchor="middle" fill="#1F3D2E" font-family="Georgia, serif" font-size="10" font-weight="600">Arruda</text>
  <text x="115" y="233" text-anchor="middle" fill="#5C5650" font-family="Georgia, serif" font-size="8">Limpeza</text>
  <rect x="190" y="190" width="130" height="60" rx="4" stroke="#1F3D2E" stroke-width="0.8" fill="none" opacity="0.15"/>
  <text x="255" y="215" text-anchor="middle" fill="#1F3D2E" font-family="Georgia, serif" font-size="10" font-weight="600">Guinť</text>
  <text x="255" y="233" text-anchor="middle" fill="#5C5650" font-family="Georgia, serif" font-size="8">Amor</text>
  <text x="50" y="290" fill="#2D2A26" font-family="Georgia, serif" font-size="11" font-weight="600">CombinaÁűes</text>
  <rect x="50" y="305" width="260" height="2" fill="#1F3D2E" opacity="0.06"/>
  <rect x="50" y="317" width="240" height="2" fill="#1F3D2E" opacity="0.06"/>
  <text x="180" y="430" text-anchor="middle" fill="#B8893A" font-family="Georgia, serif" font-size="10" font-style="italic">NossoAxť</text>
</svg>
