<svg xmlns="http://www.w3.org/2000/svg" viewBox="0 0 360 480" fill="none">
  <rect width="360" height="480" fill="#F5EBDD"/>
  <rect x="30" y="30" width="300" height="420" rx="2" stroke="#B8893A" stroke-width="1.5" fill="none" opacity="0.4"/>
  <text x="180" y="80" text-anchor="middle" fill="#1F3D2E" font-family="Georgia, serif" font-size="18" font-weight="600">Ebós para Prosperidade</text>
  <line x1="80" y1="95" x2="280" y2="95" stroke="#B8893A" stroke-width="0.8" opacity="0.5"/>
  <text x="50" y="130" fill="#2D2A26" font-family="Georgia, serif" font-size="11" font-weight="600">Intençăo</text>
  <rect x="50" y="140" width="260" height="2" fill="#1F3D2E" opacity="0.08"/>
  <rect x="50" y="152" width="240" height="2" fill="#1F3D2E" opacity="0.06"/>
  <text x="50" y="185" fill="#2D2A26" font-family="Georgia, serif" font-size="11" font-weight="600">Ingredientes</text>
  <rect x="50" y="198" width="20" height="2" fill="#B8893A" opacity="0.5"/>
  <rect x="50" y="210" width="260" height="2" fill="#1F3D2E" opacity="0.06"/>
  <rect x="50" y="222" width="250" height="2" fill="#1F3D2E" opacity="0.06"/>
  <rect x="50" y="234" width="230" height="2" fill="#1F3D2E" opacity="0.06"/>
  <text x="50" y="270" fill="#2D2A26" font-family="Georgia, serif" font-size="11" font-weight="600">Modo de Preparo</text>
  <rect x="50" y="285" width="260" height="2" fill="#1F3D2E" opacity="0.06"/>
  <rect x="50" y="297" width="255" height="2" fill="#1F3D2E" opacity="0.06"/>
  <rect x="50" y="309" width="245" height="2" fill="#1F3D2E" opacity="0.06"/>
  <rect x="50" y="321" width="260" height="2" fill="#1F3D2E" opacity="0.06"/>
  <text x="180" y="430" text-anchor="middle" fill="#B8893A" font-family="Georgia, serif" font-size="10" font-style="italic">NossoAxé</text>
</svg>
